<svg xmlns="http://www.w3.org/2000/svg"><g clip-path="url(#a)"><path d="M-97.464 904.076C-964.796-371.118-399.507 55.849-20.816-121.377c9.334-4.368 19.51-7.705 29.032-9.097 651.145-95.194 114.385 148.16 542.23 350.956 37.99 18.007 56.294 67.069 51.177 119.024C537.206 993.537 1864.39 673.934 2024.25 1462.12c9.27 45.72-16.31 98.16-57.46 119.48-621.21 321.89-1708.72 44.08-2064.254-677.524z" fill="#F9FAFE"/><path d="M-354.006 961.521C-1019.17-128.065-387.466-29.431-103.784-159.163c10.674-4.881 22.016-8.33 32.834-9.274C401.38-209.676 24.602 68.35 371.847 229.577c28.616 13.287 47.47 43.729 53.104 80.313C513.8 886.803 1608.94 792.658 1550.43 1443.51c-3.28 36.5-25.61 70.99-55.85 86.64-470.19 243.42-1568.832 46.74-1848.586-568.629z" fill="#F2F5FC"/></g><defs><clipPath id="a"><path fill="#fff" d="M0 0h1920v1080H0z"/></clipPath></defs></svg>